<svg id="Layer_1" data-name="Layer 1" xmlns="http://www.w3.org/2000/svg" viewBox="0 0 61.81 61.88"><defs><style>.cls-1{fill:#175a7e;}</style></defs><path class="cls-1" d="M27.1,61.83V56.32c.39,0,.75,0,1.11,0h25c2.3,0,2.84-.55,2.84-2.88V20.58c0-1.36,0-1.36-1.36-1.36H46.67c-2.56,0-4-1.37-4-3.95,0-2.76,0-5.52,0-8.28,0-1-.32-1.35-1.36-1.35-5.83.05-11.65,0-17.48,0-2.05,0-2.65.61-2.68,2.63,0,2.21-.08,4.41-.13,6.62,0,.23-.06.46-.08.63H15.43c0-.23-.06-.6-.06-1,0-2.17,0-4.35,0-6.52A7.81,7.81,0,0,1,23.46,0H45a7.74,7.74,0,0,1,5.68,2.3l8.92,8.93a7.45,7.45,0,0,1,2.23,5.49V53.66a7.83,7.83,0,0,1-6.2,8.08,5,5,0,0,1-1.22.13H27.79C27.6,61.88,27.4,61.85,27.1,61.83Z"/><path class="cls-1" d="M23.1,61.87c-2.09-1-4-1.8-5.63-2.84a3.54,3.54,0,0,0-4.14,0c-1.69,1-3.54,1.79-5.5,2.76-.06-.58-.13-1-.13-1.35,0-3.8,0-7.59,0-11.38,0-.85-.28-1.25-1.12-1.39A4.1,4.1,0,0,1,3,44a5.48,5.48,0,0,0-1.38-2.44A4.57,4.57,0,0,1,.23,36.81a7.9,7.9,0,0,0-.09-3.74A3.71,3.71,0,0,1,1,29.36a8,8,0,0,0,2.33-4.27,2.91,2.91,0,0,1,2.32-2.26,7,7,0,0,0,3.88-2.19,3.38,3.38,0,0,1,3.85-1,6.31,6.31,0,0,0,4,0,3.44,3.44,0,0,1,3.77,1,7.31,7.31,0,0,0,3.68,2.15,3.52,3.52,0,0,1,2.78,3A5.55,5.55,0,0,0,29.44,29a3.69,3.69,0,0,1,1.13,4.21,6.73,6.73,0,0,0,.08,4.07,3.42,3.42,0,0,1-1,3.67,6.52,6.52,0,0,0-2.07,3.48,3.76,3.76,0,0,1-3.4,3.26c-.82.1-1.12.52-1.11,1.39.05,3.76,0,7.52,0,11.27ZM15.41,42.66a7.83,7.83,0,1,0-7.87-7.81A7.9,7.9,0,0,0,15.41,42.66Z"/></svg>