<svg id="Layer_1" data-name="Layer 1" xmlns="http://www.w3.org/2000/svg" viewBox="0 0 813.5 377.5"><defs><style>.cls-1{fill:#124a63;stroke:#0e3b47;stroke-miterlimit:10;stroke-width:0.25px;}</style></defs><path class="cls-1" d="M574.82,86.14C555,86.09,557,84.7,557,103.72c0,5.32-1.83,11.86,6.9,12.54a1.42,1.42,0,0,1,1,1.87,2.61,2.61,0,0,1-2.28,1.6c-4.09.71-8.78-2.52-9.35-7.37a86.68,86.68,0,0,1,.07-22.7c.83-5.67,5.1-7.94,10.56-7.38,5.13.52,8-.21,7.6-6.61-.36-5.45,3.58-8.82,9.08-9s10.8-.17,16.19,0c6.29.17,9.52,3.47,9.63,9.72q.15,8.4,0,16.8c-.1,6.36-3.23,9.58-9.53,9.75-4.8.12-9.6.07-14.4,0-4.61-.05-7.19,2-7.24,6.77-.06,5.19-.09,10.39,0,15.59.07,3.74,1.93,6,5.87,6.11,5.19.08,10.4.13,15.59,0s5.7-3.8,5.85-8c.18-4.77-3.18-3.29-5.69-3.75-3.13-.58-8.95,1.78-8.83-1.72.13-4.33,5.83-1.77,9-2,5.56-.45,11.19-.2,16.79-.1,4.53.08,6.63-2.15,6.66-6.53,0-5.4-.07-10.8,0-16.2.07-3.73-1.41-6.16-5.17-6.89-1.43-.27-3.23-.51-2.92-2.23.34-1.87,2.31-2,3.94-1.72,4.63.84,7.8,3.42,8,8.31.24,7,.27,14,0,21-.22,5.37-4,8.44-10.46,8.07-5.53-.33-8.32.54-7.65,7.13.51,5-3.08,8.2-8.14,8.49-6,.33-12,.23-18,0-5.5-.17-8.45-3.47-8.69-8.77-.28-6.18-.28-12.4,0-18.58.24-5.47,3.78-8.7,9.34-8.89,4.79-.17,9.6-.18,14.39,0,5,.2,7.47-2,7.39-7-.06-4.8-.09-9.6,0-14.39s-2.2-7-6.85-7.08-9.2-.16-13.79,0a7.54,7.54,0,0,0-6.66,10.32c.63,1.65,1.8,1.27,2.87,1.29,2.8.07,5.6,0,8.4,0,1.62,0,3.81-.06,3.88,1.76.1,2.52-2.36,2.14-4.1,2.16C582.42,86.17,578.62,86.14,574.82,86.14Z"/><path class="cls-1" d="M596,125.25c-.38,1.46-1.08,2.7-2.81,2.34a2.45,2.45,0,0,1-2.18-3,2.31,2.31,0,0,1,2.49-2.06A2.42,2.42,0,0,1,596,125.25Z"/><path class="cls-1" d="M583.32,73.86a2.5,2.5,0,0,1,2.54,2.6c0,1.68-1.08,2.45-2.72,2.41a2,2,0,0,1-2.22-2.2C580.87,75.07,581.47,74,583.32,73.86Z"/></svg>