<svg id="Layer_1" data-name="Layer 1" xmlns="http://www.w3.org/2000/svg" viewBox="0 0 61.81 61.88"><defs><style>.cls-1{fill:#175a7e;}</style></defs><path class="cls-1" d="M30.82,61.84a30.9,30.9,0,1,1,31-30.41A30.79,30.79,0,0,1,30.82,61.84ZM31,25c-2.79,0-5.58,0-8.37,0-1,0-1.33.36-1.33,1.23,0,3.16,0,6.32,0,9.49,0,.85.4,1.16,1.29,1.15q8.37-.06,16.73,0c.9,0,1.23-.28,1.22-1.16q0-4.8,0-9.59c0-.87-.34-1.12-1.18-1.11C36.58,25.06,33.79,25,31,25Zm-.18-5.62c2.51,0,5,0,7.54,0,.84,0,1.14-.28.84-1.13-.73-2-1.29-4.14-2.16-6.11a12.76,12.76,0,0,0-4.59-6,2.39,2.39,0,0,0-3,0,16.24,16.24,0,0,0-2.82,2.67c-2.07,2.73-3.09,6-4,9.21-.34,1.2-.26,1.35,1,1.35C26,19.43,28.42,19.42,30.83,19.42ZM31,42.58c-2.54,0-5.09,0-7.63,0-.79,0-1,.3-.77,1s.48,1.58.72,2.37a23.15,23.15,0,0,0,4.2,8.2c2.3,2.71,4.5,2.72,6.78,0l.12-.17c2.68-3.08,3.79-6.88,4.92-10.67.23-.75-.26-.77-.8-.77ZM11,36.86c1.21,0,2.41,0,3.62,0,.83,0,1.06-.26,1-1.06,0-3.27,0-6.53,0-9.8,0-.77-.21-1-1-1-2.45,0-4.89.05-7.34,0a1.06,1.06,0,0,0-1.25,1,22.79,22.79,0,0,0,0,10,1,1,0,0,0,1.16.85C8.55,36.83,9.79,36.86,11,36.86ZM50.94,25c-1.28,0-2.55,0-3.82,0-.78,0-1,.23-1,1,0,3.27,0,6.53,0,9.8,0,.69.14,1.07,1,1.06,2.51-.05,5,0,7.54,0A.91.91,0,0,0,55.67,36a23,23,0,0,0,0-10.22c-.14-.59-.4-.79-1-.77C53.42,25.06,52.18,25,50.94,25ZM41.43,8.33c.22.48.41.85.54,1.23,1,2.94,2.08,5.88,3,8.85.24.75.54,1,1.26,1h6a6.8,6.8,0,0,0,1-.15C52.16,15.64,44.52,8.5,41.43,8.33ZM8.65,19.23a1.59,1.59,0,0,0,.45.14c2.28,0,4.55.05,6.82,0,.3,0,.71-.54.84-.91,1.09-3,2.14-6.09,3.19-9.13l.36-1.07C16.55,9.14,9.55,15.77,8.65,19.23ZM20.18,53.5c0-.06.08-.13.06-.18-.09-.26-.22-.5-.31-.76-1.05-3-2.14-6-3.11-9-.22-.69-.44-1-1.16-1-2.07,0-4.13,0-6.19,0a5.2,5.2,0,0,0-.78.1C9.45,46.11,17.38,53.53,20.18,53.5Zm33-10.91c-2.52,0-5,0-7.4,0-.24,0-.57.51-.68.84-.78,2.37-1.49,4.78-2.28,7.15-.33,1-.82,1.92-1.25,2.91C44.46,53.51,52.39,46.08,53.13,42.59Z"/></svg>