<svg id="Layer_1" data-name="Layer 1" xmlns="http://www.w3.org/2000/svg" viewBox="0 0 82.12 78.66"><defs><style>.cls-1{fill:#fff;}</style></defs><path class="cls-1" d="M25.46,22.38C2.82,22.32,5.09,20.73,5.13,42.43,5.14,48.5,3,56,13,56.73a1.64,1.64,0,0,1,1.08,2.14,3,3,0,0,1-2.61,1.83c-4.66.8-10-2.88-10.66-8.41a98.93,98.93,0,0,1,.08-25.9c1-6.46,5.82-9.06,12-8.42,5.86.6,9.17-.24,8.68-7.54C21.19,4.22,25.69.37,32,.15S44.28,0,50.43.14c7.18.2,10.86,4,11,11.09q.16,9.59,0,19.16c-.11,7.27-3.69,10.94-10.88,11.13-5.47.14-10.94.08-16.42,0-5.26-.05-8.2,2.33-8.26,7.72-.06,5.93-.1,11.86,0,17.79.08,4.26,2.2,6.9,6.68,7,5.93.09,11.87.14,17.79,0s6.51-4.33,6.68-9.06c.2-5.45-3.63-3.76-6.5-4.28-3.56-.66-10.2,2-10.07-2,.15-4.93,6.66-2,10.29-2.3a191.08,191.08,0,0,1,19.15-.12c5.17.09,7.57-2.45,7.6-7.45,0-6.16-.08-12.32,0-18.47.08-4.27-1.61-7-5.9-7.87-1.63-.31-3.68-.59-3.33-2.54.38-2.14,2.63-2.3,4.49-2,5.28.95,8.9,3.9,9.1,9.47.28,8,.31,16,0,23.94C81.63,57.51,77.29,61,70,60.59c-6.31-.37-9.49.62-8.72,8.13.58,5.75-3.52,9.36-9.29,9.69-6.82.38-13.69.26-20.52,0-6.27-.2-9.64-4-9.91-10-.32-7.05-.33-14.14,0-21.2.27-6.23,4.3-9.92,10.64-10.14,5.47-.18,10.95-.2,16.42,0,5.74.22,8.52-2.25,8.44-8-.08-5.48-.11-10.95,0-16.42s-2.5-8-7.81-8.08-10.5-.18-15.74,0A8.59,8.59,0,0,0,25.85,16.4c.72,1.88,2,1.45,3.28,1.47,3.19.08,6.38.06,9.58,0,1.85,0,4.34-.07,4.42,2,.11,2.88-2.69,2.44-4.67,2.46C34.12,22.41,29.79,22.38,25.46,22.38Z"/><path class="cls-1" d="M49.61,67c-.43,1.66-1.23,3.08-3.21,2.68a2.82,2.82,0,0,1-2.49-3.4,2.66,2.66,0,0,1,2.85-2.35A2.76,2.76,0,0,1,49.61,67Z"/><path class="cls-1" d="M35.14,8.37c1.7.18,2.91,1.1,2.9,3s-1.23,2.8-3.1,2.75a2.33,2.33,0,0,1-2.54-2.51C32.35,9.75,33,8.52,35.14,8.37Z"/></svg>