<svg id="Layer_1" data-name="Layer 1" xmlns="http://www.w3.org/2000/svg" viewBox="0 0 61.81 61.88"><defs><style>.cls-1{fill:#175a7e;}</style></defs><path class="cls-1" d="M31,61.63H11.84A7.59,7.59,0,0,1,4,53.88Q4,34.72,4,15.56C4,11.18,7.47,8,12.19,7.89c1.13,0,2.26,0,3.39,0,.78,0,1-.29,1-1,0-1.23,0-2.46,0-3.69a2.77,2.77,0,1,1,5.52,0c0,1.27,0,2.53,0,3.8,0,.73.26.94,1,.94,5.2,0,10.41,0,15.61,0,.82,0,1.09-.3,1.07-1.07,0-1.24,0-2.47,0-3.7A2.66,2.66,0,0,1,42.38.23,2.76,2.76,0,0,1,45.19,3c.06,1.23.07,2.46,0,3.69-.05.88.2,1.22,1.14,1.19a45,45,0,0,1,4.5.12,7.48,7.48,0,0,1,6.91,7.6q.11,19.15,0,38.31a7.63,7.63,0,0,1-7.9,7.71C43.55,61.58,37.25,61.63,31,61.63Zm-.12-18.06c1.64,0,3.29,0,4.93,0,.7,0,1-.2,1-.93,0-2,0-4,0-6,0-.67-.22-.9-.89-.89q-5,0-10,0c-.69,0-.88.27-.87.91q0,3,0,6.06c0,.66.21.91.89.9C27.55,43.55,29.19,43.58,30.83,43.57Zm0,12.48c1.64,0,3.28,0,4.92,0,.69,0,1-.22.95-1,0-1.7,0-3.41,0-5.12,0-.64-.25-.92-.91-.91q-4.92,0-9.84,0c-.71,0-1,.28-.95,1,0,1.64.06,3.28,0,4.91,0,.91.33,1.12,1.13,1.1C27.72,56,29.29,56.06,30.86,56.05ZM31,23.18c-1.67,0-3.35,0-5,0-.64,0-.92.19-.9.88,0,1.71,0,3.42,0,5.13,0,.65.24.94.9.93h9.95c.62,0,.86-.27.85-.87,0-1.75,0-3.49,0-5.24,0-.63-.25-.83-.85-.83C34.24,23.2,32.6,23.18,31,23.18ZM14.49,43.58c1.33,0,2.66,0,4,0,.64,0,.93-.21.93-.88q0-3.08,0-6.15c0-.53-.16-.84-.76-.83q-4.14,0-8.3,0c-.56,0-.79.25-.79.8q0,3.07,0,6.15c0,.65.27.92.92.9C11.83,43.56,13.16,43.58,14.49,43.58Zm32.77,0c1.33,0,2.67,0,4,0,.59,0,.87-.19.87-.82,0-2.08,0-4.17,0-6.25,0-.58-.24-.79-.8-.78q-4.09,0-8.2,0c-.62,0-.85.28-.85.87,0,2,0,4,0,6,0,.69.28,1,1,1C44.6,43.55,45.93,43.58,47.26,43.58ZM14.62,49.09c-1.37,0-2.74,0-4.11,0-.64,0-.95.25-.94.91,0,1.36,0,2.73,0,4.1A1.82,1.82,0,0,0,11.45,56c2.39.06,4.78,0,7.18,0,.54,0,.79-.24.79-.81,0-1.75,0-3.49,0-5.23,0-.74-.34-.95-1-.93C17.15,49.1,15.88,49.08,14.62,49.09Zm32.62,0c-1.3,0-2.6,0-3.9,0-.74,0-1.07.27-1.06,1,0,1.68,0,3.36,0,5,0,.65.26,1,.91.94,2.32,0,4.65,0,7,0,1.33,0,1.92-.69,2-2s0-2.67,0-4c0-.74-.33-.95-1-.93C49.84,49.1,48.54,49.08,47.24,49.08Zm0-25.9c-1.37,0-2.74,0-4.1,0-.6,0-.89.22-.89.83,0,1.74,0,3.49,0,5.23,0,.6.27.87.87.87h8.12c.6,0,.86-.24.85-.86,0-1.75,0-3.49,0-5.24,0-.63-.25-.85-.85-.83C49.94,23.2,48.61,23.18,47.27,23.18Zm-32.78,0c-1.33,0-2.67,0-4,0-.65,0-.94.23-.93.9,0,1.71,0,3.42,0,5.13,0,.67.3.92.94.91h8c.66,0,.91-.28.9-.92,0-1.68,0-3.36,0-5,0-.78-.31-1-1-1C17.09,23.21,15.79,23.18,14.49,23.18Z"/></svg>